<?xml version="1.0" standalone="no"?><!DOCTYPE svg PUBLIC "-//W3C//DTD SVG 1.1//EN" "http://www.w3.org/Graphics/SVG/1.1/DTD/svg11.dtd"><svg class="icon" width="200px" height="200.00px" viewBox="0 0 1024 1024" version="1.1" xmlns="http://www.w3.org/2000/svg"><path d="M528 848c-176 0-320-144-320-320s144-320 320-320 320 144 320 320-144 320-320 320z m0-32c160 0 288-128 288-288s-128-288-288-288-288 128-288 288 128 288 288 288z" fill="#C8CDD0" /><path d="M880 528c0 19.2-12.8 32-32 32s-32-12.8-32-32c0-150.4-121.6-272-272-272-19.2 0-32-12.8-32-32s12.8-32 32-32c185.6 0 336 150.4 336 336z" fill="#5B6B73" /></svg>