<?xml version="1.0" standalone="no"?><!DOCTYPE svg PUBLIC "-//W3C//DTD SVG 1.1//EN" "http://www.w3.org/Graphics/SVG/1.1/DTD/svg11.dtd"><svg t="1582978299089" class="icon" viewBox="0 0 1024 1024" version="1.1" xmlns="http://www.w3.org/2000/svg" p-id="3061" xmlns:xlink="http://www.w3.org/1999/xlink" width="200" height="200"><defs><style type="text/css"></style></defs><path d="M512 704c-105.9 0-192-86.1-192-192s86.1-192 192-192 192 86.1 192 192-86.1 192-192 192z m0-320c-70.6 0-128 57.4-128 128s57.4 128 128 128 128-57.4 128-128-57.4-128-128-128z" p-id="3062"></path><path d="M983.8 312.7C958 251.7 921 197 874 150c-47-47-101.7-84-162.7-109.8C648.2 13.5 581.1 0 512 0S375.8 13.5 312.7 40.2C251.7 66 197 103 150 150c-47 47-84 101.7-109.8 162.7C13.5 375.8 0 442.9 0 512s13.5 136.2 40.2 199.3C66 772.3 103 827 150 874c47 47 101.8 83.9 162.7 109.7 63.1 26.7 130.2 40.2 199.3 40.2s136.2-13.5 199.3-40.2C772.3 958 827 921 874 874c47-47 83.9-101.8 109.7-162.7 26.7-63.1 40.2-130.2 40.2-199.3s-13.4-136.2-40.1-199.3zM512 960C265 960 64 759 64 512S265 64 512 64s448 201 448 448-201 448-448 448z" p-id="3063"></path><path d="M686.2 169.7C632 142.1 573.4 128 512.1 128h-0.1c-17.6 0-31.9 14.3-31.9 32s14.3 32 31.9 32c101.4 0 194.6 46.5 255.8 127.7 5.8 7.7 15.1 12.6 25.5 12.6 17.7 0 32-14.3 32-32 0-7.2-2.4-13.9-6.5-19.3-35.1-46.4-80.9-84.9-132.6-111.3z m-173.7 662c-101.4 0-194.6-46.5-255.8-127.7-5.8-7.7-15.1-12.6-25.5-12.6-17.7 0-32 14.3-32 32 0 7.2 2.4 13.9 6.5 19.3 35 46.4 80.9 84.9 132.6 111.3 54.3 27.7 112.8 41.7 174.1 41.7h0.1c17.6 0 31.9-14.3 31.9-32s-14.2-31.9-31.9-32z" p-id="3064"></path></svg>